<svg id="Layer_1" data-name="Layer 1" xmlns="http://www.w3.org/2000/svg" viewBox="0 0 1920 1920"><defs><style>.cls-1{fill:#000000;}</style></defs><path class="cls-1" d="M741.72,1566c0,53.13-30.26,77.83-85.26,77.83H405.65V1150.21H656.46c52.51,0,85.26,21.63,85.26,78.45Zm-127.26-35.23V1263.89H532.92v266.85Z"/><path class="cls-1" d="M1127.1,1566c0,55-28.42,77.83-84.65,77.83H876.27c-53.12,0-84.63-21.61-84.63-77.83V1228.66c0-52.5,28.42-78.45,84.63-78.45h166.18c53.74,0,84.65,22.23,84.65,78.45Zm-127.26-35.23V1263.89H918.9v266.85Z"/><path class="cls-1" d="M1492.07,1563.49c0,58.7-30.89,80.31-87.1,80.31H1257.31c-56.21,0-86.49-21.61-86.49-80.31V1470.2h127.26v60.54h66.72V1150.21h127.27Z"/><path class="cls-1" d="M1877.43,1566c0,55-28.4,77.83-84.64,77.83H1626.62c-53.12,0-84.63-21.61-84.63-77.83V1228.66c0-52.5,28.42-78.45,84.63-78.45h166.17c53.75,0,84.64,22.23,84.64,78.45Zm-127.24-35.23V1263.89h-80.94v266.85Z"/><path class="cls-1" d="M1759,515.73H524.12c-5.52,0-10.8.89-16.11,1.62-.87-1.06-1.24-2.36-2.23-3.36L279.39,287.61a38.91,38.91,0,0,0-55,0l-73.47,73.47a38.91,38.91,0,0,0,0,55.05L210,475.28H81.5A38.93,38.93,0,0,0,42.57,514.2V618.11A38.93,38.93,0,0,0,81.5,657H401.66c1.42,0,2.62-.66,4-.81V921.82a118.46,118.46,0,0,0,118.47,118.46H1759a118.46,118.46,0,0,0,118.47-118.46V634.19A118.47,118.47,0,0,0,1759,515.73ZM942.71,867.57c0,29.28-15.13,41.44-45.07,41.44H809.16c-28.29,0-45.07-11.51-45.07-41.44V688c0-28,15.13-41.77,45.07-41.77h88.48c28.61,0,45.07,11.84,45.07,41.77Zm573.29,0c0,29.28-15.13,41.44-45.07,41.44h-88.49c-28.28,0-45.06-11.51-45.06-41.44V688c0-28,15.13-41.77,45.06-41.77h88.49c28.61,0,45.07,11.84,45.07,41.77Z"/></svg>
